# xmcd
#
# Track frame offsets:
#	150
#	15202
#	33270
#	53935
#	96070
#	114502
#	142082
#	165555
#	207690
#	226390
#	247432
#	270232
#
# Disc length: 3899 seconds
#
# Revision: 1
# Processed by: cddbd v1.5.1PL0 Copyright (c) Steve Scherf et al.
# Submitted via: CDex 1.50Beta5
#
DISCID=a30f390c
DTITLE=EUGEN CICERO - ベスト・オブ・オイゲン・キケロ
DYEAR=1900
DGENRE=Jazz
TTITLE0=平均律クラヴァア曲集
TTITLE1=G線上のアリア
TTITLE2=コラ-ル
TTITLE3=トッカ-タとフ-ガ
TTITLE4=バッハ・ゴ-ズ・ラテン
TTITLE5=キラキラ星変奏曲
TTITLE6=幻想曲ニ短調
TTITLE7=幻想曲ハ短調
TTITLE8=春へのあこがれ
TTITLE9=ディヴェルティメント
TTITLE10=キケロのパラフレ-ズ
TTITLE11=ダウン・バイ・ザ・リヴア-サイド
EXTD=
EXTT0=
EXTT1=
EXTT2=
EXTT3=
EXTT4=
EXTT5=
EXTT6=
EXTT7=
EXTT8=
EXTT9=
EXTT10=
EXTT11=
PLAYORDER=
